<svg width="635" height="610" viewBox="0 0 635 610" fill="none" xmlns="http://www.w3.org/2000/svg">
<path d="M488.207 370.628H473.747C473.747 371.235 473.837 372.161 473.949 373.328C474.141 375.317 474.4 378.007 474.4 381.013V434.175H490.051V396.129C490.305 391.76 493.001 381.632 502.492 381.013C511.816 380.406 514.482 387.349 514.736 391.039V434.175H530.515V398.038C530.345 392.042 533.773 381.565 544.049 381.013C552.704 380.549 555.37 389.275 555.2 392.777V434.175H570.597V390.148C570.597 390.148 570.597 368.223 549.365 368.6C536.889 368.822 531.308 376.336 528.318 380.361L528.133 380.61C526.796 376.225 520.557 367.231 507.523 368.6C495.91 369.82 490.978 377.158 488.988 380.61L488.207 370.628Z" fill="#3A7859"/>
<path d="M401.065 370.428H416.882V412.754C417.269 416.339 418.928 422.431 429.313 422.431C435.81 422.431 441.095 417.952 442.774 412.754C444.453 407.555 443.472 370.693 443.472 370.693L459.381 370.428V434.015H444.088L443.472 425.01L443.247 425.312C440.815 428.582 436.479 434.409 425.951 435.175C401.978 436.918 401.45 414.024 401.45 414.024L401.065 370.428Z" fill="#3A7859"/>
<path fill-rule="evenodd" clip-rule="evenodd" d="M440.78 287.672V296.617C439.454 293.086 433.655 285.594 422.634 286.255C408.452 287.105 401.047 296.576 398.821 309.326C396.595 322.076 402.733 339.885 418.047 342.786C430.297 345.107 438.307 337.861 440.78 333.949V342.246H453.665V287.672H440.78ZM441.108 314.764C441.108 324.833 434.514 332.996 426.381 332.996C418.248 332.996 411.654 324.833 411.654 314.764C411.654 304.696 418.248 296.533 426.381 296.533C434.514 296.533 441.108 304.696 441.108 314.764Z" fill="#3A7859"/>
<path d="M353.574 287.65H340.901L340.901 296.019L341.373 342.11H354.891C354.891 342.11 355.291 315.198 355.291 310.082C355.291 304.967 360.212 293.773 376.779 299.363V286.791C376.779 286.791 360.966 283.266 354.146 296.462L353.574 287.65Z" fill="#3A7859"/>
<path d="M281.621 287.65H294.294L294.866 296.462C301.687 283.266 317.5 286.791 317.5 286.791V299.363C300.933 293.773 296.011 304.967 296.011 310.082C296.011 315.198 295.612 342.11 295.612 342.11H282.093L281.622 296.019L281.621 287.65Z" fill="#3A7859"/>
<path fill-rule="evenodd" clip-rule="evenodd" d="M620.963 264.031C611.051 191.046 572.727 128.338 529.335 86.964C500.816 59.7716 439.27 22.406 362.326 12.9931C334.735 9.61778 305.016 9.49625 274.336 15.2041C269.148 16.1693 264.112 17.2619 259.215 18.4654C258.725 18.5758 258.233 18.698 257.74 18.8322C240.337 23.2128 224.695 28.9878 210.245 35.398C145.258 65.7501 109.215 110.592 92.4353 135.062C121.185 96.9383 165.345 61.0976 212.83 41.0106C220.096 37.7758 227.519 34.8504 235.038 32.2407C200.567 63.8497 190.178 134.423 187.361 192.159C182.33 194.41 178.825 199.459 178.825 205.326C178.825 210.866 181.949 215.676 186.532 218.09C186.235 236.394 186.545 252.149 186.762 263.156L186.762 263.157L186.762 263.17C186.857 267.988 186.934 271.896 186.934 274.708C186.934 281.142 187.237 288.619 187.856 296.927C175.762 291.452 164.158 284.229 153.392 275.849H176.852V264.44H139.993C106.776 233.597 84.5001 192.732 86.0162 163.553C87.5071 142.76 117.917 134.244 178.825 141.027C126.564 124.808 85.1146 131.44 77.0054 157.571C67.3179 186.174 87.0044 230.089 120.756 264.44H112.591V275.849H132.906C134.509 277.236 136.136 278.6 137.785 279.938V341.433H151.918V290.391C163.564 298.2 176.023 304.638 188.931 309.11C190.821 327.784 194.077 349.587 198.797 372.661C190.801 377.269 186.213 385.642 184.44 395.796C181.842 410.676 189.007 431.46 206.878 434.845C209.689 435.378 212.309 435.479 214.726 435.263C220.688 454.566 227.664 473.629 235.706 491.472C192.196 517.456 154.885 530.678 143.66 511.735C135.175 499.715 139.452 479.171 143.863 457.978L143.864 457.977C145.074 452.163 146.294 446.301 147.264 440.552C136.72 458.538 127.458 482.655 126.822 500.643C107.704 481.338 89.3322 458.417 73.2432 431.569C77.8358 429.351 82.4234 425.927 86.7802 420.708C93.6178 412.518 96.709 401.167 96.709 389.255C96.709 376.29 93.2337 363.885 85.2913 355.497C77.6086 347.384 68.7018 343.406 55.1721 342.921C43.3336 342.496 32.4539 346.283 24.6985 353.392C23.5906 354.408 22.5464 355.491 21.5723 356.64C18.0862 360.75 15.4915 365.886 13.7684 371.5C12.0452 377.114 11.1935 383.205 11.1935 389.227C11.1935 392.063 11.4272 394.912 11.8756 397.716C13.037 404.979 15.6393 411.943 19.3526 417.618C20.0878 418.742 20.8666 419.815 21.6864 420.831C29.0129 429.902 40.3146 434.775 52.2472 435.349C53.0427 435.387 53.841 435.406 54.6412 435.406C55.874 435.406 57.134 435.373 58.4152 435.29C61.6537 440.315 88.4702 481.013 132.817 521.097C134.036 522.357 135.407 523.605 136.955 524.79C152.161 538.187 169.312 551.389 188.179 563.037C206.469 574.327 289.654 616.207 398.682 591.879C474.989 574.852 526.594 527.066 556.291 490.259C568.403 475.247 576.534 461.959 581.721 453.483C581.987 453.048 582.246 452.625 582.497 452.215C585.643 447.082 589.16 440.75 592.833 433.264C594.895 429.895 596.479 426.474 597.622 423.016C601.034 415.349 604.5 406.751 607.861 397.256C619.392 364.671 628.71 321.081 620.963 264.031ZM200.615 312.577C202.255 332.324 204.731 351.293 207.899 369.389C209.278 369.136 210.722 368.962 212.231 368.871C225.093 368.1 231.861 376.844 233.409 380.964V370.525H248.446V434.216H233.409V424.532C231.799 427.079 228.178 430.836 222.81 433.191C228.654 452.865 235.297 470.987 242.458 487.368C267.267 472.04 293.715 452.987 318.261 433.665H308.686V391.34C308.299 387.754 306.833 381.179 296.449 381.179C289.951 381.179 283.814 386.141 282.135 391.34C280.456 396.538 280.849 433.665 280.849 433.665H265.322V388.836L264.648 370.309L279.503 370.639L280.196 380.621C280.257 380.539 280.32 380.454 280.384 380.367C280.415 380.324 280.447 380.28 280.48 380.236C280.514 380.189 280.549 380.14 280.585 380.092L280.706 379.924L280.709 379.921L280.723 379.902L280.724 379.9C283.249 376.424 287.981 369.909 300.002 368.919C324.303 366.917 324.503 390.069 324.503 390.069V428.713C332.719 422.145 340.68 415.58 348.249 409.153V382.907H335.837V370.759H348.249L348.299 355.456L363.69 349.886V370.759H380.531V380.358C393.531 368.078 403.651 357.454 409.471 349.87C396.437 372.173 380.374 391.633 363.69 408.458V412.396C363.747 415.551 365.58 422.198 372.885 422.265C374.755 422.265 380.415 421.527 380.415 421.527L380.594 434.127C377.397 435.017 369.291 436.341 362.443 434.515C355.041 432.541 351.496 426.878 349.8 421.777C327.509 442.14 305.293 457.989 288.73 469.805C282.325 474.374 276.766 478.34 272.374 481.731C263.617 488.111 255.387 493.763 247.651 498.755C275.861 558.07 310.661 591.394 336.509 588.275C356.773 585.829 368.382 552.736 375.382 517.038C371.003 514.564 368.046 509.866 368.046 504.477C368.046 497.418 373.12 491.543 379.819 490.302C381.782 476.338 383.18 463.062 384.265 452.215C385.917 461.338 386.951 475.129 386.654 490.679C392.572 492.474 396.88 497.972 396.88 504.477C396.88 511.685 391.59 517.658 384.68 518.724C381.251 546.28 373.026 574.064 356.75 588.782C370.106 587.579 383.227 585.471 395.882 582.493C481.482 562.352 539.999 509.478 574.641 453.841C575.053 453.179 575.464 452.513 575.873 451.841C527.628 489.084 419.783 460.533 390.573 427.887C447.34 463.028 544.653 473.841 576.629 439.242C618.54 390.043 542.851 333.853 468.964 286.097C517.147 302.369 593.202 353.2 599.51 402.147C615.529 357.776 623.498 302.093 610.517 241.498C596.724 177.117 565.434 132.765 536.445 103.513C540.907 122.308 534.761 147.699 523.974 173.557C525.648 175.911 526.632 178.79 526.632 181.899C526.632 189.448 520.829 195.642 513.441 196.264C492.297 237.926 463.498 276.069 452.745 284.295C468.133 262.022 488.253 227.44 503.536 193.412C500.05 190.78 497.798 186.603 497.798 181.899C497.798 173.937 504.252 167.482 512.215 167.482C512.873 167.482 513.522 167.526 514.157 167.612C525.961 135.724 530.921 107.448 520.324 94.4969C482.489 56.662 374.08 149.465 306.806 207.054C300.381 212.554 294.331 217.733 288.753 222.447C314.884 189.108 361.739 146.916 391.473 124.232C447.482 81.5034 481.907 72.0763 503.046 74.6104C498.699 71.3819 494.706 68.5928 491.187 66.2127C442.572 35.6031 356.48 7.14358 279.94 20.5757C309.358 33.14 331.623 83.5577 336.509 115.221C335.188 112.91 333.424 109.592 331.292 105.581L331.29 105.578C315.964 76.7488 281.626 12.1595 256.315 28.7201C218.867 53.2219 203.256 114.628 199.168 192.18C204.174 194.44 207.658 199.476 207.658 205.326C207.658 211.542 203.726 216.838 198.213 218.863C197.829 237.897 198.019 257.695 198.648 277.988C198.896 286.001 199.284 293.906 199.801 301.696C201.979 302.448 204.167 303.14 206.366 303.77L206.373 303.759C208.75 304.394 211.014 304.991 213.21 305.514C216.135 306.167 219.073 306.705 222.02 307.119C222.338 307.164 222.653 307.205 222.966 307.245C223.622 307.308 224.278 307.358 224.936 307.394C227.964 307.56 233.597 307.61 238.081 307.65H238.082C239.913 307.666 241.553 307.681 242.746 307.701C242.348 303.398 240.477 295.413 231.081 295.413C222.54 295.413 219.909 301.108 219.909 301.108L207.846 298.272C210.682 292.671 218.077 285.389 231.081 285.729C238.457 285.922 249.496 289.296 252.856 300.702C254.644 306.775 254.846 313.14 254.846 315.007L227.528 315.236C224.337 315.327 221.048 315.405 217.24 315.412C217.382 321.442 219.657 331.991 231.081 332.172C242.022 332.345 246.45 328.855 249.323 326.59L249.325 326.588C249.466 326.477 249.603 326.369 249.736 326.265C250.57 328.417 252.257 332.115 253.322 334.449L253.323 334.45L253.323 334.451C253.53 334.904 253.713 335.306 253.862 335.634C250.976 338.33 241.802 343.515 228.903 342.437C212.779 341.089 205.471 328.326 204.641 322.623C204.266 320.041 204.081 316.665 204.219 313.41C203.015 313.15 201.813 312.872 200.615 312.577ZM199.418 402.143C199.418 397.584 200.576 393.36 202.548 389.897C205.009 400.555 207.774 411.38 210.852 422.199C204.189 419.27 199.418 411.396 199.418 402.143ZM210.312 382.338C213.111 396.494 216.332 410.074 219.902 423.028C227.816 421.124 233.791 412.498 233.791 402.143C233.791 390.392 226.096 380.867 216.604 380.867C214.383 380.867 212.261 381.388 210.312 382.338ZM377.816 382.907C373.394 387.035 368.668 391.334 363.69 395.754V382.907H377.816ZM255.414 528.805C269.98 552.166 287.761 575.991 306.363 589.002C269.717 586.023 233.481 576.111 202.252 558.54C189.665 551.458 176.491 542.883 163.217 532.714C180.333 532.594 205.053 525.228 241.092 502.903C245.566 511.981 250.337 520.663 255.414 528.805ZM80.9856 389.242C80.9856 396.684 79.557 403.819 76.3092 409.404C75.8453 410.202 75.3442 410.968 74.8048 411.699C68.2276 420.613 60.8163 422.193 54.5238 422.193C46.4453 422.193 38.6596 419.467 33.7281 412.558C29.5894 406.76 27.7836 397.551 27.7836 389.242C27.7836 380.643 29.3284 371.506 33.7282 365.636C38.3383 359.485 45.3724 356.235 53.2686 356.138C53.795 356.132 54.3253 356.139 54.8589 356.161C62.3294 356.465 67.5665 358.677 72.0068 363.106C72.6412 363.738 73.2592 364.416 73.8652 365.14C78.564 370.754 80.7107 378.89 80.9607 387.512C80.9774 388.087 80.9856 388.664 80.9856 389.242Z" fill="#3A7859"/>
<path d="M112.148 370.428H127.965V412.754C128.352 416.339 130.011 422.431 140.396 422.431C146.893 422.431 152.178 417.952 153.857 412.754C155.536 407.555 154.555 370.693 154.555 370.693L170.464 370.428V434.015H155.171L154.555 425.01C154.482 425.108 154.407 425.209 154.33 425.312C151.897 428.582 147.561 434.409 137.034 435.175C113.061 436.918 112.533 414.024 112.533 414.024L112.148 370.428Z" fill="#3A7859"/>
</svg>
